<?xml version="1.0" encoding="iso-8859-1"?>
<!-- Generator: Adobe Illustrator 18.0.0, SVG Export Plug-In . SVG Version: 6.00 Build 0)  -->
<!DOCTYPE svg PUBLIC "-//W3C//DTD SVG 1.1//EN" "http://www.w3.org/Graphics/SVG/1.1/DTD/svg11.dtd">
<svg version="1.1" id="Capa_1" xmlns="http://www.w3.org/2000/svg" xmlns:xlink="http://www.w3.org/1999/xlink" x="0px" y="0px"
	 viewBox="0 0 456.272 456.272" style="enable-background:new 0 0 456.272 456.272;" xml:space="preserve">
<path d="M441.272,184.656h-88.349L288.61,29.703c-3.176-7.651-11.955-11.277-19.604-8.104c-7.651,3.176-11.28,11.953-8.104,19.604
	l59.54,143.453H135.831l59.54-143.453c3.176-7.651-0.453-16.429-8.104-19.604c-7.648-3.175-16.429,0.453-19.604,8.104
	L103.35,184.656H15c-8.284,0-15,6.716-15,15s6.716,15,15,15h9.02l29.408,160.833c6.393,34.96,36.828,60.334,72.367,60.334h204.684
	c35.54,0,65.974-25.374,72.366-60.334l29.408-160.833h9.02c8.284,0,15-6.716,15-15S449.556,184.656,441.272,184.656z
	 M373.333,370.092c-3.786,20.704-21.809,35.73-42.855,35.73H125.794c-21.046,0-39.07-15.026-42.856-35.73L54.646,215.365h346.979
	L373.333,370.092z"/>
<g>
</g>
<g>
</g>
<g>
</g>
<g>
</g>
<g>
</g>
<g>
</g>
<g>
</g>
<g>
</g>
<g>
</g>
<g>
</g>
<g>
</g>
<g>
</g>
<g>
</g>
<g>
</g>
<g>
</g>
</svg>
