<?xml version="1.0" encoding="utf-8"?>
<!-- Svg Vector Icons : http://www.onlinewebfonts.com/icon -->
<!DOCTYPE svg PUBLIC "-//W3C//DTD SVG 1.1//EN" "http://www.w3.org/Graphics/SVG/1.1/DTD/svg11.dtd">
<svg version="1.1" xmlns="http://www.w3.org/2000/svg" xmlns:xlink="http://www.w3.org/1999/xlink" x="0px" y="0px" viewBox="0 0 1000 1000" enable-background="new 0 0 1000 1000" xml:space="preserve">
<metadata> Svg Vector Icons : http://www.onlinewebfonts.com/icon </metadata>
<g><path d="M500,10C229.8,10,10,229.8,10,500c0,270.2,219.8,490,490,490c270.2,0,490-219.8,490-490C990,229.8,770.2,10,500,10L500,10z M810.1,810.6c-61.9-19.4-179.5-50.5-197.5-61.8C586.7,732.5,595,643.3,595,643.3l17.6-15.5c0,0,4.5-40.3,12.1-54.9c17.1-32.8,35.1-88,35.1-88s17.6-12.8,17.6-35.2c0-22.3-17.6-35.2-17.6-35.2s6.7-62.3,6.7-105.6c0-90.8-57.1-140.7-159.6-140.7c-102.6,0-177.3,42.4-177.3,140.7c0,43.3,13.7,105.6,13.7,105.6s-17.6,12.8-17.6,35.2c0,22.4,17.6,35.2,17.6,35.2s20.5,63.8,35.2,88c8.6,14.1,12.1,54.9,12.1,54.9l17.6,15.5c0,0,8.3,89.1-17.6,105.5c-19.5,12.3-144,44.8-198.9,63.4C110.9,732.5,60.9,622,60.9,500c0-242.1,197-439.1,439.1-439.1c242.1,0,439.1,197,439.1,439.1C939.1,621.2,889.8,731.1,810.1,810.6L810.1,810.6z"/></g>
</svg>